# xmcd
#
# Track frame offsets:
#	150
#	19727
#	39078
#	58992
#	81082
#	98296
#	118398
#	134262
#	150163
#	165390
#	184667
#	205594
#
# Disc length: 3001 seconds
#
# Revision: 1
# Processed by: cddbd v1.5.2PL0 Copyright (c) Steve Scherf et al.
# Submitted via: audiograbber 1.83.01
#
DISCID=880bb70c
DTITLE=Patricia Kaas - Café noir
DYEAR=1996
DGENRE=Pop
TTITLE0=When the night rolls in
TTITLE1=Ain't no sunshine
TTITLE2=Company
TTITLE3=Don't let me be lonely tonight
TTITLE4=Sometimes it snows in April
TTITLE5=I wish you love
TTITLE6=My life
TTITLE7=If you leave me now
TTITLE8=Black coffee
TTITLE9=You don't have to say you love me
TTITLE10=Ain't no way
TTITLE11=I want you to love me
EXTD=
EXTT0=
EXTT1=
EXTT2=
EXTT3=
EXTT4=
EXTT5=
EXTT6=
EXTT7=
EXTT8=
EXTT9=
EXTT10=
EXTT11=
PLAYORDER=
